<?xml version="1.0" standalone="no"?><!DOCTYPE svg PUBLIC "-//W3C//DTD SVG 1.1//EN" "http://www.w3.org/Graphics/SVG/1.1/DTD/svg11.dtd"><svg class="icon" height="512" viewBox="0 0 1024 1024" version="1.1" xmlns="http://www.w3.org/2000/svg"><path d="M154.56 478.336a63.872 63.872 0 0 0 40.96 63.744l113.536 113.472a63.808 63.808 0 0 0 90.496 0 63.808 63.808 0 0 0 0-90.496L312.896 478.4 399.552 391.68a63.808 63.808 0 0 0 0-90.496 63.808 63.808 0 0 0-90.496 0L195.584 414.72a64.128 64.128 0 0 0-41.024 63.616zM508.8 320a64 64 0 0 1 63.36-64h257.216c35.008 0 63.36 28.416 63.36 64a64 64 0 0 1-63.36 64H572.224a63.552 63.552 0 0 1-63.424-64z m0 256a64 64 0 0 1 63.36-64h257.216c35.008 0 63.36 28.416 63.36 64a64 64 0 0 1-63.36 64H572.224a63.552 63.552 0 0 1-63.424-64zM192 832c0-35.328 28.352-64 63.424-64h573.952c35.008 0 63.36 28.416 63.36 64 0 35.328-28.288 64-63.36 64H255.36A63.552 63.552 0 0 1 192 832z" /></svg>